<mxfile host="Electron" agent="Mozilla/5.0 (Macintosh; Intel Mac OS X 10_15_7) AppleWebKit/537.36 (KHTML, like Gecko) draw.io/27.0.9 Chrome/134.0.6998.205 Electron/35.4.0 Safari/537.36" version="27.0.9">
  <diagram name="Page-1" id="c0MG-RBC0vRgcLwglr-d">
    <mxGraphModel dx="380" dy="229" grid="1" gridSize="10" guides="1" tooltips="1" connect="1" arrows="1" fold="1" page="1" pageScale="1" pageWidth="850" pageHeight="1100" math="1" shadow="0">
      <root>
        <mxCell id="0" />
        <mxCell id="1" style="" parent="0" />
        <mxCell id="3LigwaIXD-zaxwBGFe82-8" value="" style="endArrow=classic;html=1;rounded=0;endFill=1;" edge="1" parent="1">
          <mxGeometry width="50" height="50" relative="1" as="geometry">
            <mxPoint x="360" y="400" as="sourcePoint" />
            <mxPoint x="520" y="400" as="targetPoint" />
          </mxGeometry>
        </mxCell>
        <mxCell id="3LigwaIXD-zaxwBGFe82-9" value="" style="endArrow=none;html=1;rounded=0;endFill=1;startFill=1;startArrow=classic;" edge="1" parent="1">
          <mxGeometry width="50" height="50" relative="1" as="geometry">
            <mxPoint x="400" y="300" as="sourcePoint" />
            <mxPoint x="400" y="440" as="targetPoint" />
          </mxGeometry>
        </mxCell>
        <mxCell id="3LigwaIXD-zaxwBGFe82-10" value="" style="verticalLabelPosition=bottom;verticalAlign=top;html=1;shape=mxgraph.basic.arc;startAngle=0.9207691149824666;endAngle=0.333228289156716;" vertex="1" parent="1">
          <mxGeometry x="320" y="320" width="160" height="160" as="geometry" />
        </mxCell>
        <mxCell id="UrFGi6wFs18K0bhvfEZ_-5" value="arrow" style="locked=1;" parent="0" />
        <mxCell id="3LigwaIXD-zaxwBGFe82-26" value="" style="endArrow=classic;html=1;rounded=0;" edge="1" parent="UrFGi6wFs18K0bhvfEZ_-5">
          <mxGeometry width="50" height="50" relative="1" as="geometry">
            <mxPoint x="413" y="342" as="sourcePoint" />
            <mxPoint x="512" y="322" as="targetPoint" />
          </mxGeometry>
        </mxCell>
        <mxCell id="3LigwaIXD-zaxwBGFe82-27" value="" style="endArrow=classic;html=1;rounded=0;fillColor=#e1d5e7;strokeColor=#FF8000;" edge="1" parent="UrFGi6wFs18K0bhvfEZ_-5">
          <mxGeometry width="50" height="50" relative="1" as="geometry">
            <mxPoint x="511" y="322" as="sourcePoint" />
            <mxPoint x="466" y="355" as="targetPoint" />
          </mxGeometry>
        </mxCell>
        <mxCell id="UrFGi6wFs18K0bhvfEZ_-6" value="sigs" style="locked=1;" parent="0" />
        <mxCell id="3LigwaIXD-zaxwBGFe82-11" value="" style="ellipse;whiteSpace=wrap;html=1;aspect=fixed;fillColor=#6666FF;" vertex="1" parent="UrFGi6wFs18K0bhvfEZ_-6">
          <mxGeometry x="410" y="340" width="4" height="4" as="geometry" />
        </mxCell>
        <mxCell id="3LigwaIXD-zaxwBGFe82-12" value="" style="ellipse;whiteSpace=wrap;html=1;aspect=fixed;fillColor=#6666FF;" vertex="1" parent="UrFGi6wFs18K0bhvfEZ_-6">
          <mxGeometry x="510" y="320" width="4" height="4" as="geometry" />
        </mxCell>
        <mxCell id="3LigwaIXD-zaxwBGFe82-22" value="" style="ellipse;whiteSpace=wrap;html=1;aspect=fixed;fillColor=#6666FF;" vertex="1" parent="UrFGi6wFs18K0bhvfEZ_-6">
          <mxGeometry x="464" y="353" width="4" height="4" as="geometry" />
        </mxCell>
        <mxCell id="UrFGi6wFs18K0bhvfEZ_-8" value="name" style="locked=1;" parent="0" />
        <mxCell id="3LigwaIXD-zaxwBGFe82-30" value="$$\widehat{\boldsymbol{\theta}}\text{-space}$$" style="text;align=center;verticalAlign=middle;resizable=0;points=[];autosize=1;strokeColor=none;fillColor=none;html=1;labelPosition=center;verticalLabelPosition=middle;textShadow=0;" vertex="1" parent="UrFGi6wFs18K0bhvfEZ_-8">
          <mxGeometry x="390" y="400" width="270" height="30" as="geometry" />
        </mxCell>
        <mxCell id="UrFGi6wFs18K0bhvfEZ_-7" value="math" style="locked=1;" parent="0" />
        <mxCell id="3LigwaIXD-zaxwBGFe82-14" value="$$\widehat{\boldsymbol{\theta}}[k]$$" style="text;html=1;align=center;verticalAlign=middle;resizable=0;points=[];autosize=1;strokeColor=none;fillColor=none;" vertex="1" parent="UrFGi6wFs18K0bhvfEZ_-7">
          <mxGeometry x="310" y="340" width="220" height="30" as="geometry" />
        </mxCell>
        <mxCell id="3LigwaIXD-zaxwBGFe82-15" value="$$\widehat{\boldsymbol{\theta}}[k+1]$$" style="text;html=1;align=center;verticalAlign=middle;resizable=0;points=[];autosize=1;strokeColor=none;fillColor=none;" vertex="1" parent="UrFGi6wFs18K0bhvfEZ_-7">
          <mxGeometry x="400" y="290" width="230" height="30" as="geometry" />
        </mxCell>
        <mxCell id="3LigwaIXD-zaxwBGFe82-25" value="$$\rm{Proj}(\widehat{\boldsymbol{\theta}}[k+1])$$" style="text;html=1;align=center;verticalAlign=middle;resizable=0;points=[];autosize=1;strokeColor=none;fillColor=none;" vertex="1" parent="UrFGi6wFs18K0bhvfEZ_-7">
          <mxGeometry x="380" y="340" width="290" height="30" as="geometry" />
        </mxCell>
      </root>
    </mxGraphModel>
  </diagram>
</mxfile>
